# xmcd
#
# Track frame offsets: 
#        150
#        10924
#        23726
#        36597
#        49667
#        59333
#        72458
#        85730
#        95929
#        108063
#        119542
#        129718
#        141467
#        152012
#        163654
#        173262
#        187850
#        198877
#        208241
#        219005
#        233204
#        243320
#        252910
#        262910
#        275691
#
# Disc length: 3812 seconds
#
# Revision: 0
# Processed by: cddbd v1.5.2PL0 Copyright (c) Steve Scherf et al.
# Submitted via: ExactAudioCopy v1.0b1
#
DISCID=630ee219
DTITLE=Jim Reeves - The Very Best Of
DYEAR=2011
DGENRE=Country
TTITLE0=He'll Have to Go
TTITLE1=I Love You Because
TTITLE2=This World Is Not My Home
TTITLE3=Four Walls
TTITLE4=Billy Bayou
TTITLE5=Have I Told You Lately That I Love You?
TTITLE6=Distant Drums
TTITLE7=I Won't Come in While He Is There
TTITLE8=Am I Losing You
TTITLE9=Anna Marie
TTITLE10=Blue Boy
TTITLE11=I Missed Me
TTITLE12=Losing Your Love
TTITLE13=Adios Amigo
TTITLE14=I'm Gonna Change Everything
TTITLE15=Guilty
TTITLE16=Welcome to My World
TTITLE17=I Won't Forget You
TTITLE18=You're the Only Good Thing
TTITLE19=This Is It
TTITLE20=When Two Worlds Collide
TTITLE21=There's a Heartache Following Me
TTITLE22=It Hurts So Much to See You Go
TTITLE23=Not Until the Next Time
TTITLE24=Is It Really Over?
EXTD=
EXTT0=
EXTT1=
EXTT2=
EXTT3=
EXTT4=
EXTT5=
EXTT6=
EXTT7=
EXTT8=
EXTT9=
EXTT10=
EXTT11=
EXTT12=
EXTT13=
EXTT14=
EXTT15=
EXTT16=
EXTT17=
EXTT18=
EXTT19=
EXTT20=
EXTT21=
EXTT22=
EXTT23=
EXTT24=
PLAYORDER=
